# xmcd
#
# Track frame offsets:
#	150
#	20345
#	45615
#	60345
#	78450
#	87845
#	111030
#	128705
#	146448
#	166718
#	186828
#	208628
#	226188
#	244113
#	260688
#	278963
#	294143
#	309913
#	331963
#
# Disc length: 4721 seconds
#
# Revision: 0
# Processed by: cddbd v1.5.1PL0 Copyright (c) Steve Scherf et al.
# Submitted via: dBpowerAMP V4.0
#
DISCID=f9126f13
DTITLE=Randy Crawford - The Times We've Shared
DYEAR=2005
DGENRE=Soul
TTITLE0=Whos Crying Now
TTITLE1=Your Precious Love
TTITLE2=One Hello
TTITLE3=Cajun Moon
TTITLE4=I'm Glad There Is You
TTITLE5=Love's Mystery
TTITLE6=In Real Life
TTITLE7=Tender Falls The Rain
TTITLE8=Come Into My Life
TTITLE9=Are You Sure
TTITLE10=Last Night at Danceland
TTITLE11=I'll Be Around
TTITLE12=Wishing On A Star
TTITLE13=Merry Go Round
TTITLE14=Same Old Story
TTITLE15=Secret Combination
TTITLE16=I've Never Been To Me
TTITLE17=Bye Bye
TTITLE18=Shine
EXTD=Randy Crawford's Album "The Very Best of Randy Crawford - The Time's We've Shared"
EXTT0=
EXTT1=
EXTT2=
EXTT3=
EXTT4=
EXTT5=
EXTT6=
EXTT7=
EXTT8=
EXTT9=
EXTT10=
EXTT11=
EXTT12=
EXTT13=
EXTT14=
EXTT15=
EXTT16=
EXTT17=
EXTT18=
PLAYORDER=
